<svg width="132" height="115" fill="none" xmlns="http://www.w3.org/2000/svg"><g opacity=".3"><mask id="a" maskUnits="userSpaceOnUse" x="-1" y="0" width="12" height="11"><path d="M5.228 10.425c2.888 0 5.229-2.333 5.229-5.212 0-2.878-2.341-5.212-5.229-5.212S0 2.335 0 5.213c0 2.879 2.34 5.212 5.228 5.212z" fill="url(#paint0_linear)"/></mask><g mask="url(#a)"><path d="M5.228 10.425c2.888 0 5.229-2.333 5.229-5.212 0-2.878-2.341-5.212-5.229-5.212S0 2.335 0 5.213c0 2.879 2.34 5.212 5.228 5.212z" fill="url(#paint1_linear)"/></g><mask id="b" maskUnits="userSpaceOnUse" x="30" y="0" width="11" height="11"><path d="M35.509 10.426c2.888 0 5.228-2.334 5.228-5.213 0-2.878-2.34-5.212-5.228-5.212S30.28 2.335 30.28 5.213c0 2.88 2.341 5.213 5.229 5.213z" fill="url(#paint2_linear)"/></mask><g mask="url(#b)"><path d="M35.509 10.426c2.888 0 5.228-2.334 5.228-5.213 0-2.878-2.34-5.212-5.228-5.212S30.28 2.335 30.28 5.213c0 2.88 2.341 5.213 5.229 5.213z" fill="url(#paint3_linear)"/></g><mask id="c" maskUnits="userSpaceOnUse" x="60" y="0" width="12" height="11"><path d="M65.79 10.426c2.888 0 5.229-2.334 5.229-5.213 0-2.878-2.341-5.212-5.229-5.212-2.887 0-5.228 2.334-5.228 5.212 0 2.88 2.34 5.213 5.228 5.213z" fill="url(#paint4_linear)"/></mask><g mask="url(#c)"><path d="M65.79 10.426c2.888 0 5.229-2.334 5.229-5.213 0-2.878-2.341-5.212-5.229-5.212-2.887 0-5.228 2.334-5.228 5.212 0 2.88 2.34 5.213 5.228 5.213z" fill="url(#paint5_linear)"/></g><mask id="d" maskUnits="userSpaceOnUse" x="90" y="0" width="12" height="11"><path d="M96.071 10.426c2.888 0 5.228-2.334 5.228-5.213 0-2.878-2.34-5.212-5.228-5.212s-5.228 2.334-5.228 5.212c0 2.88 2.34 5.213 5.228 5.213z" fill="url(#paint6_linear)"/></mask><g mask="url(#d)"><path d="M96.071 10.426c2.888 0 5.228-2.334 5.228-5.213 0-2.878-2.34-5.212-5.228-5.212s-5.228 2.334-5.228 5.212c0 2.88 2.34 5.213 5.228 5.213z" fill="url(#paint7_linear)"/></g><mask id="e" maskUnits="userSpaceOnUse" x="121" y="0" width="11" height="11"><path d="M126.352 10.426c2.888 0 5.229-2.334 5.229-5.213 0-2.878-2.341-5.212-5.229-5.212-2.887 0-5.228 2.334-5.228 5.212 0 2.88 2.341 5.213 5.228 5.213z" fill="url(#paint8_linear)"/></mask><g mask="url(#e)"><path d="M126.352 10.426c2.888 0 5.229-2.334 5.229-5.213 0-2.878-2.341-5.212-5.229-5.212-2.887 0-5.228 2.334-5.228 5.212 0 2.88 2.341 5.213 5.228 5.213z" fill="url(#paint9_linear)"/></g><mask id="f" maskUnits="userSpaceOnUse" x="-1" y="26" width="12" height="11"><path d="M5.228 36.597c2.888 0 5.229-2.334 5.229-5.213 0-2.878-2.341-5.212-5.229-5.212S0 28.506 0 31.384c0 2.879 2.34 5.213 5.228 5.213z" fill="url(#paint10_linear)"/></mask><g mask="url(#f)"><path d="M5.228 36.597c2.888 0 5.229-2.334 5.229-5.213 0-2.878-2.341-5.212-5.229-5.212S0 28.506 0 31.384c0 2.879 2.34 5.213 5.228 5.213z" fill="url(#paint11_linear)"/></g><mask id="g" maskUnits="userSpaceOnUse" x="30" y="26" width="11" height="11"><path d="M35.509 36.597c2.888 0 5.228-2.334 5.228-5.213 0-2.878-2.34-5.212-5.228-5.212s-5.229 2.334-5.229 5.212c0 2.879 2.341 5.213 5.229 5.213z" fill="url(#paint12_linear)"/></mask><g mask="url(#g)"><path d="M35.509 36.597c2.888 0 5.228-2.334 5.228-5.213 0-2.878-2.34-5.212-5.228-5.212s-5.229 2.334-5.229 5.212c0 2.879 2.341 5.213 5.229 5.213z" fill="url(#paint13_linear)"/></g><mask id="h" maskUnits="userSpaceOnUse" x="60" y="26" width="12" height="11"><path d="M65.79 36.597c2.888 0 5.229-2.334 5.229-5.213 0-2.878-2.341-5.212-5.229-5.212-2.887 0-5.228 2.334-5.228 5.212 0 2.879 2.34 5.213 5.228 5.213z" fill="url(#paint14_linear)"/></mask><g mask="url(#h)"><path d="M65.79 36.597c2.888 0 5.229-2.334 5.229-5.213 0-2.878-2.341-5.212-5.229-5.212-2.887 0-5.228 2.334-5.228 5.212 0 2.879 2.34 5.213 5.228 5.213z" fill="url(#paint15_linear)"/></g><mask id="i" maskUnits="userSpaceOnUse" x="90" y="26" width="12" height="11"><path d="M96.071 36.597c2.888 0 5.228-2.334 5.228-5.213 0-2.878-2.34-5.212-5.228-5.212s-5.228 2.334-5.228 5.212c0 2.879 2.34 5.213 5.228 5.213z" fill="url(#paint16_linear)"/></mask><g mask="url(#i)"><path d="M96.071 36.597c2.888 0 5.228-2.334 5.228-5.213 0-2.878-2.34-5.212-5.228-5.212s-5.228 2.334-5.228 5.212c0 2.879 2.34 5.213 5.228 5.213z" fill="url(#paint17_linear)"/></g><mask id="j" maskUnits="userSpaceOnUse" x="121" y="26" width="11" height="11"><path d="M126.352 36.597c2.888 0 5.229-2.334 5.229-5.213 0-2.878-2.341-5.212-5.229-5.212-2.887 0-5.228 2.334-5.228 5.212 0 2.879 2.341 5.213 5.228 5.213z" fill="url(#paint18_linear)"/></mask><g mask="url(#j)"><path d="M126.352 36.597c2.888 0 5.229-2.334 5.229-5.213 0-2.878-2.341-5.212-5.229-5.212-2.887 0-5.228 2.334-5.228 5.212 0 2.879 2.341 5.213 5.228 5.213z" fill="url(#paint19_linear)"/></g><mask id="k" maskUnits="userSpaceOnUse" x="-1" y="52" width="12" height="11"><path d="M5.228 62.713c2.888 0 5.229-2.334 5.229-5.212 0-2.88-2.341-5.213-5.229-5.213S0 54.622 0 57.501c0 2.878 2.34 5.212 5.228 5.212z" fill="url(#paint20_linear)"/></mask><g mask="url(#k)"><path d="M5.228 62.713c2.888 0 5.229-2.334 5.229-5.212 0-2.88-2.341-5.213-5.229-5.213S0 54.622 0 57.501c0 2.878 2.34 5.212 5.228 5.212z" fill="url(#paint21_linear)"/></g><mask id="l" maskUnits="userSpaceOnUse" x="30" y="52" width="11" height="11"><path d="M35.509 62.713c2.888 0 5.228-2.334 5.228-5.212 0-2.879-2.34-5.212-5.228-5.212S30.28 54.622 30.28 57.5s2.341 5.212 5.229 5.212z" fill="url(#paint22_linear)"/></mask><g mask="url(#l)"><path d="M35.509 62.713c2.888 0 5.228-2.334 5.228-5.212 0-2.879-2.34-5.212-5.228-5.212S30.28 54.622 30.28 57.5s2.341 5.212 5.229 5.212z" fill="url(#paint23_linear)"/></g><mask id="m" maskUnits="userSpaceOnUse" x="60" y="52" width="12" height="11"><path d="M65.79 62.713c2.888 0 5.229-2.334 5.229-5.212 0-2.879-2.341-5.212-5.229-5.212-2.887 0-5.228 2.333-5.228 5.212 0 2.878 2.34 5.212 5.228 5.212z" fill="url(#paint24_linear)"/></mask><g mask="url(#m)"><path d="M65.79 62.713c2.888 0 5.229-2.334 5.229-5.212 0-2.879-2.341-5.212-5.229-5.212-2.887 0-5.228 2.333-5.228 5.212 0 2.878 2.34 5.212 5.228 5.212z" fill="url(#paint25_linear)"/></g><mask id="n" maskUnits="userSpaceOnUse" x="90" y="52" width="12" height="11"><path d="M96.071 62.713c2.888 0 5.228-2.334 5.228-5.212 0-2.879-2.34-5.212-5.228-5.212s-5.228 2.333-5.228 5.212c0 2.878 2.34 5.212 5.228 5.212z" fill="url(#paint26_linear)"/></mask><g mask="url(#n)"><path d="M96.071 62.713c2.888 0 5.228-2.334 5.228-5.212 0-2.879-2.34-5.212-5.228-5.212s-5.228 2.333-5.228 5.212c0 2.878 2.34 5.212 5.228 5.212z" fill="url(#paint27_linear)"/></g><mask id="o" maskUnits="userSpaceOnUse" x="121" y="52" width="11" height="11"><path d="M126.352 62.713c2.888 0 5.229-2.334 5.229-5.212 0-2.879-2.341-5.212-5.229-5.212-2.887 0-5.228 2.333-5.228 5.212 0 2.878 2.341 5.212 5.228 5.212z" fill="url(#paint28_linear)"/></mask><g mask="url(#o)"><path d="M126.352 62.713c2.888 0 5.229-2.334 5.229-5.212 0-2.879-2.341-5.212-5.229-5.212-2.887 0-5.228 2.333-5.228 5.212 0 2.878 2.341 5.212 5.228 5.212z" fill="url(#paint29_linear)"/></g><mask id="p" maskUnits="userSpaceOnUse" x="-1" y="78" width="12" height="11"><path d="M5.228 88.883c2.888 0 5.229-2.333 5.229-5.212 0-2.879-2.341-5.212-5.229-5.212S0 80.793 0 83.671c0 2.879 2.34 5.212 5.228 5.212z" fill="url(#paint30_linear)"/></mask><g mask="url(#p)"><path d="M5.228 88.883c2.888 0 5.229-2.333 5.229-5.212 0-2.879-2.341-5.212-5.229-5.212S0 80.793 0 83.671c0 2.879 2.34 5.212 5.228 5.212z" fill="url(#paint31_linear)"/></g><mask id="q" maskUnits="userSpaceOnUse" x="30" y="78" width="11" height="11"><path d="M35.509 88.884c2.888 0 5.228-2.333 5.228-5.212 0-2.879-2.34-5.212-5.228-5.212s-5.229 2.333-5.229 5.212c0 2.879 2.341 5.212 5.229 5.212z" fill="url(#paint32_linear)"/></mask><g mask="url(#q)"><path d="M35.509 88.884c2.888 0 5.228-2.333 5.228-5.212 0-2.879-2.34-5.212-5.228-5.212s-5.229 2.333-5.229 5.212c0 2.879 2.341 5.212 5.229 5.212z" fill="url(#paint33_linear)"/></g><mask id="r" maskUnits="userSpaceOnUse" x="60" y="78" width="12" height="11"><path d="M65.79 88.884c2.888 0 5.229-2.333 5.229-5.212 0-2.879-2.341-5.212-5.229-5.212-2.887 0-5.228 2.333-5.228 5.212 0 2.879 2.34 5.212 5.228 5.212z" fill="url(#paint34_linear)"/></mask><g mask="url(#r)"><path d="M65.79 88.884c2.888 0 5.229-2.333 5.229-5.212 0-2.879-2.341-5.212-5.229-5.212-2.887 0-5.228 2.333-5.228 5.212 0 2.879 2.34 5.212 5.228 5.212z" fill="url(#paint35_linear)"/></g><mask id="s" maskUnits="userSpaceOnUse" x="90" y="78" width="12" height="11"><path d="M96.071 88.884c2.888 0 5.228-2.333 5.228-5.212 0-2.879-2.34-5.212-5.228-5.212s-5.228 2.333-5.228 5.212c0 2.879 2.34 5.212 5.228 5.212z" fill="url(#paint36_linear)"/></mask><g mask="url(#s)"><path d="M96.071 88.884c2.888 0 5.228-2.333 5.228-5.212 0-2.879-2.34-5.212-5.228-5.212s-5.228 2.333-5.228 5.212c0 2.879 2.34 5.212 5.228 5.212z" fill="url(#paint37_linear)"/></g><mask id="t" maskUnits="userSpaceOnUse" x="121" y="78" width="11" height="11"><path d="M126.352 88.884c2.888 0 5.229-2.333 5.229-5.212 0-2.879-2.341-5.212-5.229-5.212-2.887 0-5.228 2.333-5.228 5.212 0 2.879 2.341 5.212 5.228 5.212z" fill="url(#paint38_linear)"/></mask><g mask="url(#t)"><path d="M126.352 88.884c2.888 0 5.229-2.333 5.229-5.212 0-2.879-2.341-5.212-5.229-5.212-2.887 0-5.228 2.333-5.228 5.212 0 2.879 2.341 5.212 5.228 5.212z" fill="url(#paint39_linear)"/></g><mask id="u" maskUnits="userSpaceOnUse" x="-1" y="104" width="12" height="12"><path d="M5.228 115.001c2.888 0 5.229-2.334 5.229-5.213 0-2.878-2.341-5.212-5.229-5.212S0 106.91 0 109.788c0 2.879 2.34 5.213 5.228 5.213z" fill="url(#paint40_linear)"/></mask><g mask="url(#u)"><path d="M5.228 115.001c2.888 0 5.229-2.334 5.229-5.213 0-2.878-2.341-5.212-5.229-5.212S0 106.91 0 109.788c0 2.879 2.34 5.213 5.228 5.213z" fill="url(#paint41_linear)"/></g><mask id="v" maskUnits="userSpaceOnUse" x="30" y="104" width="11" height="12"><path d="M35.509 115.001c2.888 0 5.228-2.334 5.228-5.212 0-2.879-2.34-5.213-5.228-5.213s-5.229 2.334-5.229 5.213c0 2.878 2.341 5.212 5.229 5.212z" fill="url(#paint42_linear)"/></mask><g mask="url(#v)"><path d="M35.509 115.001c2.888 0 5.228-2.334 5.228-5.212 0-2.879-2.34-5.213-5.228-5.213s-5.229 2.334-5.229 5.213c0 2.878 2.341 5.212 5.229 5.212z" fill="url(#paint43_linear)"/></g><mask id="w" maskUnits="userSpaceOnUse" x="60" y="104" width="12" height="12"><path d="M65.79 115.001c2.888 0 5.229-2.334 5.229-5.212 0-2.879-2.341-5.213-5.229-5.213-2.887 0-5.228 2.334-5.228 5.213 0 2.878 2.34 5.212 5.228 5.212z" fill="url(#paint44_linear)"/></mask><g mask="url(#w)"><path d="M65.79 115.001c2.888 0 5.229-2.334 5.229-5.212 0-2.879-2.341-5.213-5.229-5.213-2.887 0-5.228 2.334-5.228 5.213 0 2.878 2.34 5.212 5.228 5.212z" fill="url(#paint45_linear)"/></g><mask id="x" maskUnits="userSpaceOnUse" x="90" y="104" width="12" height="12"><path d="M96.071 115.001c2.888 0 5.228-2.334 5.228-5.212 0-2.879-2.34-5.213-5.228-5.213s-5.228 2.334-5.228 5.213c0 2.878 2.34 5.212 5.228 5.212z" fill="url(#paint46_linear)"/></mask><g mask="url(#x)"><path d="M96.071 115.001c2.888 0 5.228-2.334 5.228-5.212 0-2.879-2.34-5.213-5.228-5.213s-5.228 2.334-5.228 5.213c0 2.878 2.34 5.212 5.228 5.212z" fill="url(#paint47_linear)"/></g><mask id="y" maskUnits="userSpaceOnUse" x="121" y="104" width="11" height="12"><path d="M126.352 115.001c2.888 0 5.229-2.334 5.229-5.212 0-2.879-2.341-5.213-5.229-5.213-2.887 0-5.228 2.334-5.228 5.213 0 2.878 2.341 5.212 5.228 5.212z" fill="url(#paint48_linear)"/></mask><g mask="url(#y)"><path d="M126.352 115.001c2.888 0 5.229-2.334 5.229-5.212 0-2.879-2.341-5.213-5.229-5.213-2.887 0-5.228 2.334-5.228 5.213 0 2.878 2.341 5.212 5.228 5.212z" fill="url(#paint49_linear)"/></g></g><defs><linearGradient id="paint0_linear" x1="54.996" y1="131.127" x2="-16.397" y2="-50.669" gradientUnits="userSpaceOnUse"><stop/><stop offset="1" stop-color="#fff"/></linearGradient><linearGradient id="paint1_linear" x1="54.996" y1="131.127" x2="-16.397" y2="-50.669" gradientUnits="userSpaceOnUse"><stop stop-color="#97C3F9"/><stop offset="1" stop-color="#93C1F9"/></linearGradient><linearGradient id="paint2_linear" x1="81.2" y1="120.842" x2="9.8" y2="-60.96" gradientUnits="userSpaceOnUse"><stop/><stop offset="1" stop-color="#fff"/></linearGradient><linearGradient id="paint3_linear" x1="81.2" y1="120.842" x2="9.8" y2="-60.96" gradientUnits="userSpaceOnUse"><stop stop-color="#97C3F9"/><stop offset="1" stop-color="#93C1F9"/></linearGradient><linearGradient id="paint4_linear" x1="107.405" y1="110.551" x2="36.005" y2="-71.251" gradientUnits="userSpaceOnUse"><stop/><stop offset="1" stop-color="#fff"/></linearGradient><linearGradient id="paint5_linear" x1="107.405" y1="110.551" x2="36.005" y2="-71.251" gradientUnits="userSpaceOnUse"><stop stop-color="#97C3F9"/><stop offset="1" stop-color="#93C1F9"/></linearGradient><linearGradient id="paint6_linear" x1="133.607" y1="100.259" x2="62.206" y2="-81.541" gradientUnits="userSpaceOnUse"><stop/><stop offset="1" stop-color="#fff"/></linearGradient><linearGradient id="paint7_linear" x1="133.607" y1="100.259" x2="62.206" y2="-81.541" gradientUnits="userSpaceOnUse"><stop stop-color="#97C3F9"/><stop offset="1" stop-color="#93C1F9"/></linearGradient><linearGradient id="paint8_linear" x1="159.814" y1="89.968" x2="88.415" y2="-91.835" gradientUnits="userSpaceOnUse"><stop/><stop offset="1" stop-color="#fff"/></linearGradient><linearGradient id="paint9_linear" x1="159.814" y1="89.968" x2="88.415" y2="-91.835" gradientUnits="userSpaceOnUse"><stop stop-color="#97C3F9"/><stop offset="1" stop-color="#93C1F9"/></linearGradient><linearGradient id="paint10_linear" x1="46.054" y1="134.646" x2="-25.345" y2="-47.157" gradientUnits="userSpaceOnUse"><stop/><stop offset="1" stop-color="#fff"/></linearGradient><linearGradient id="paint11_linear" x1="46.054" y1="134.646" x2="-25.345" y2="-47.157" gradientUnits="userSpaceOnUse"><stop stop-color="#97C3F9"/><stop offset="1" stop-color="#93C1F9"/></linearGradient><linearGradient id="paint12_linear" x1="72.258" y1="124.354" x2=".858" y2="-57.448" gradientUnits="userSpaceOnUse"><stop/><stop offset="1" stop-color="#fff"/></linearGradient><linearGradient id="paint13_linear" x1="72.258" y1="124.354" x2=".858" y2="-57.448" gradientUnits="userSpaceOnUse"><stop stop-color="#97C3F9"/><stop offset="1" stop-color="#93C1F9"/></linearGradient><linearGradient id="paint14_linear" x1="98.462" y1="114.063" x2="27.062" y2="-67.739" gradientUnits="userSpaceOnUse"><stop/><stop offset="1" stop-color="#fff"/></linearGradient><linearGradient id="paint15_linear" x1="98.462" y1="114.063" x2="27.062" y2="-67.739" gradientUnits="userSpaceOnUse"><stop stop-color="#97C3F9"/><stop offset="1" stop-color="#93C1F9"/></linearGradient><linearGradient id="paint16_linear" x1="124.665" y1="103.771" x2="53.264" y2="-78.029" gradientUnits="userSpaceOnUse"><stop/><stop offset="1" stop-color="#fff"/></linearGradient><linearGradient id="paint17_linear" x1="124.665" y1="103.771" x2="53.264" y2="-78.029" gradientUnits="userSpaceOnUse"><stop stop-color="#97C3F9"/><stop offset="1" stop-color="#93C1F9"/></linearGradient><linearGradient id="paint18_linear" x1="150.871" y1="93.48" x2="79.472" y2="-88.323" gradientUnits="userSpaceOnUse"><stop/><stop offset="1" stop-color="#fff"/></linearGradient><linearGradient id="paint19_linear" x1="150.871" y1="93.48" x2="79.472" y2="-88.323" gradientUnits="userSpaceOnUse"><stop stop-color="#97C3F9"/><stop offset="1" stop-color="#93C1F9"/></linearGradient><linearGradient id="paint20_linear" x1="37.111" y1="138.157" x2="-34.288" y2="-43.645" gradientUnits="userSpaceOnUse"><stop/><stop offset="1" stop-color="#fff"/></linearGradient><linearGradient id="paint21_linear" x1="37.111" y1="138.157" x2="-34.288" y2="-43.645" gradientUnits="userSpaceOnUse"><stop stop-color="#97C3F9"/><stop offset="1" stop-color="#93C1F9"/></linearGradient><linearGradient id="paint22_linear" x1="63.315" y1="127.863" x2="-8.079" y2="-53.933" gradientUnits="userSpaceOnUse"><stop/><stop offset="1" stop-color="#fff"/></linearGradient><linearGradient id="paint23_linear" x1="63.315" y1="127.863" x2="-8.079" y2="-53.933" gradientUnits="userSpaceOnUse"><stop stop-color="#97C3F9"/><stop offset="1" stop-color="#93C1F9"/></linearGradient><linearGradient id="paint24_linear" x1="89.52" y1="117.572" x2="18.126" y2="-64.224" gradientUnits="userSpaceOnUse"><stop/><stop offset="1" stop-color="#fff"/></linearGradient><linearGradient id="paint25_linear" x1="89.52" y1="117.572" x2="18.126" y2="-64.224" gradientUnits="userSpaceOnUse"><stop stop-color="#97C3F9"/><stop offset="1" stop-color="#93C1F9"/></linearGradient><linearGradient id="paint26_linear" x1="115.723" y1="107.281" x2="44.327" y2="-74.513" gradientUnits="userSpaceOnUse"><stop/><stop offset="1" stop-color="#fff"/></linearGradient><linearGradient id="paint27_linear" x1="115.723" y1="107.281" x2="44.327" y2="-74.513" gradientUnits="userSpaceOnUse"><stop stop-color="#97C3F9"/><stop offset="1" stop-color="#93C1F9"/></linearGradient><linearGradient id="paint28_linear" x1="141.929" y1="96.99" x2="70.535" y2="-84.806" gradientUnits="userSpaceOnUse"><stop/><stop offset="1" stop-color="#fff"/></linearGradient><linearGradient id="paint29_linear" x1="141.929" y1="96.99" x2="70.535" y2="-84.806" gradientUnits="userSpaceOnUse"><stop stop-color="#97C3F9"/><stop offset="1" stop-color="#93C1F9"/></linearGradient><linearGradient id="paint30_linear" x1="28.169" y1="141.667" x2="-43.224" y2="-40.13" gradientUnits="userSpaceOnUse"><stop/><stop offset="1" stop-color="#fff"/></linearGradient><linearGradient id="paint31_linear" x1="28.169" y1="141.667" x2="-43.224" y2="-40.13" gradientUnits="userSpaceOnUse"><stop stop-color="#97C3F9"/><stop offset="1" stop-color="#93C1F9"/></linearGradient><linearGradient id="paint32_linear" x1="54.373" y1="131.379" x2="-17.027" y2="-50.423" gradientUnits="userSpaceOnUse"><stop/><stop offset="1" stop-color="#fff"/></linearGradient><linearGradient id="paint33_linear" x1="54.373" y1="131.379" x2="-17.027" y2="-50.423" gradientUnits="userSpaceOnUse"><stop stop-color="#97C3F9"/><stop offset="1" stop-color="#93C1F9"/></linearGradient><linearGradient id="paint34_linear" x1="80.577" y1="121.087" x2="9.178" y2="-60.715" gradientUnits="userSpaceOnUse"><stop/><stop offset="1" stop-color="#fff"/></linearGradient><linearGradient id="paint35_linear" x1="80.577" y1="121.087" x2="9.178" y2="-60.715" gradientUnits="userSpaceOnUse"><stop stop-color="#97C3F9"/><stop offset="1" stop-color="#93C1F9"/></linearGradient><linearGradient id="paint36_linear" x1="106.781" y1="110.796" x2="35.379" y2="-71.004" gradientUnits="userSpaceOnUse"><stop/><stop offset="1" stop-color="#fff"/></linearGradient><linearGradient id="paint37_linear" x1="106.781" y1="110.796" x2="35.379" y2="-71.004" gradientUnits="userSpaceOnUse"><stop stop-color="#97C3F9"/><stop offset="1" stop-color="#93C1F9"/></linearGradient><linearGradient id="paint38_linear" x1="132.986" y1="100.505" x2="61.587" y2="-81.298" gradientUnits="userSpaceOnUse"><stop/><stop offset="1" stop-color="#fff"/></linearGradient><linearGradient id="paint39_linear" x1="132.986" y1="100.505" x2="61.587" y2="-81.298" gradientUnits="userSpaceOnUse"><stop stop-color="#97C3F9"/><stop offset="1" stop-color="#93C1F9"/></linearGradient><linearGradient id="paint40_linear" x1="19.226" y1="145.184" x2="-52.178" y2="-36.625" gradientUnits="userSpaceOnUse"><stop/><stop offset="1" stop-color="#fff"/></linearGradient><linearGradient id="paint41_linear" x1="19.226" y1="145.184" x2="-52.178" y2="-36.625" gradientUnits="userSpaceOnUse"><stop stop-color="#97C3F9"/><stop offset="1" stop-color="#93C1F9"/></linearGradient><linearGradient id="paint42_linear" x1="45.43" y1="134.891" x2="-25.969" y2="-46.911" gradientUnits="userSpaceOnUse"><stop/><stop offset="1" stop-color="#fff"/></linearGradient><linearGradient id="paint43_linear" x1="45.43" y1="134.891" x2="-25.969" y2="-46.911" gradientUnits="userSpaceOnUse"><stop stop-color="#97C3F9"/><stop offset="1" stop-color="#93C1F9"/></linearGradient><linearGradient id="paint44_linear" x1="71.635" y1="124.6" x2=".235" y2="-57.202" gradientUnits="userSpaceOnUse"><stop/><stop offset="1" stop-color="#fff"/></linearGradient><linearGradient id="paint45_linear" x1="71.635" y1="124.6" x2=".235" y2="-57.202" gradientUnits="userSpaceOnUse"><stop stop-color="#97C3F9"/><stop offset="1" stop-color="#93C1F9"/></linearGradient><linearGradient id="paint46_linear" x1="97.839" y1="114.308" x2="26.437" y2="-67.492" gradientUnits="userSpaceOnUse"><stop/><stop offset="1" stop-color="#fff"/></linearGradient><linearGradient id="paint47_linear" x1="97.839" y1="114.308" x2="26.437" y2="-67.492" gradientUnits="userSpaceOnUse"><stop stop-color="#97C3F9"/><stop offset="1" stop-color="#93C1F9"/></linearGradient><linearGradient id="paint48_linear" x1="124.044" y1="104.017" x2="52.645" y2="-77.785" gradientUnits="userSpaceOnUse"><stop/><stop offset="1" stop-color="#fff"/></linearGradient><linearGradient id="paint49_linear" x1="124.044" y1="104.017" x2="52.645" y2="-77.785" gradientUnits="userSpaceOnUse"><stop stop-color="#97C3F9"/><stop offset="1" stop-color="#93C1F9"/></linearGradient></defs></svg>