<svg width="68" height="95" fill="none" xmlns="http://www.w3.org/2000/svg"><path d="M67.71 90.449a4.49 4.49 0 01-4.485 4.493L5.22 95.01a4.495 4.495 0 01-4.253-3.035 4.39 4.39 0 01-.24-1.442L.634 6.882A4.49 4.49 0 015.12 2.388l53.262-.058 4.743-.008a4.49 4.49 0 014.493 4.486l.092 83.64z" fill="url(#paint0_linear)"/><path d="M61.7 89.968l-54.963.058a2.41 2.41 0 01-2.412-2.413L4.242 9.767a2.41 2.41 0 012.413-2.412l54.953-.058a2.41 2.41 0 012.413 2.412l.083 77.846a2.403 2.403 0 01-2.404 2.413z" fill="#fff"/><path d="M53.98 13.714l-40.087.05a2.413 2.413 0 01-2.413-2.405l-.008-6.682a2.413 2.413 0 012.404-2.413l40.096-.042a2.413 2.413 0 012.413 2.405l.008 6.683a2.419 2.419 0 01-2.413 2.404zM13.876 3.49a1.18 1.18 0 00-1.177 1.177l.008 6.683c0 .647.53 1.177 1.177 1.177l40.096-.041c.647 0 1.178-.53 1.178-1.178l-.008-6.682c0-.647-.531-1.177-1.178-1.177l-40.096.041z" fill="url(#paint1_linear)"/><path d="M52.844 5.116l-37.434.042a.743.743 0 01-.746-.747V.788c0-.414.331-.746.746-.746L52.836 0c.415 0 .746.332.746.747V4.37a.73.73 0 01-.738.746z" fill="url(#paint2_linear)"/><path d="M15.443 5.157l37.368-.041a.78.78 0 00.78-.78V2.563l-38.935.042v1.774c0 .431.356.78.787.78zm13.133 76.056l-3.233-19.568-2.62 8.515-7.495.009a.817.817 0 01-.821-.821c0-.456.365-.821.82-.821l6.294-.008 4.32-14.02 3.233 19.616 4.195-13.473 2.23 6.384 5.025-12.18 4.883 19.319 1.841-6.144 5.39-.008c.455 0 .82.365.82.82a.818.818 0 01-.82.822l-4.171.008-3.192 10.654-5.124-20.263-4.784 11.582-2.015-5.762-4.776 15.339z" fill="#58D6F4"/><path d="M23.021 43.488l-10.538.008a3.096 3.096 0 01-3.092-3.084l-.017-14.734c0-1.7 1.385-3.092 3.084-3.092l10.538-.009c1.7 0 3.093 1.385 3.093 3.085l.017 14.733c0 1.7-1.385 3.084-3.085 3.093zM12.45 23.48c-1.21 0-2.189.987-2.189 2.197l.017 14.734c0 1.21.986 2.188 2.197 2.188l10.538-.008c1.21 0 2.189-.986 2.189-2.197l-.017-14.733c0-1.21-.986-2.19-2.197-2.19l-10.538.01z" fill="url(#paint3_linear)"/><path d="M17.74 40.66c4.983-.008 6.533-2.885 6.533-2.885a3.615 3.615 0 00-.887-.78c-1.31-.853-2.363-1.218-2.802-1.583-.448-.357-.697-.879-.697-.879l-.273.166s-.166-.572-.075-1.443c0 0 .39-.1.68-1.418.464.092 1.011-1.086.754-1.517-.165-.282-.364-.257-.505-.19.14-.59.779-3.848-2.736-3.848-3.516 0-2.877 3.259-2.728 3.847-.141-.066-.34-.09-.506.191-.257.431.298 1.609.763 1.517.29 1.319.688 1.41.688 1.41.1.862-.075 1.443-.075 1.443l-.273-.166s-.249.514-.697.879c-.447.364-1.492.737-2.802 1.591-.382.25-.672.498-.887.78-.009.016 1.55 2.894 6.525 2.885z" fill="url(#paint4_linear)"/><path d="M50.556 27.278l-20.288.025a.687.687 0 01-.688-.688v-.116c0-.381.306-.688.688-.688l20.288-.025c.382 0 .688.307.688.688v.116a.692.692 0 01-.688.688z" fill="url(#paint5_linear)"/><path d="M43.094 31.142l-12.826.016a.686.686 0 01-.688-.688v-.116c0-.381.306-.688.688-.688l12.826-.017c.382 0 .688.307.688.689v.116a.686.686 0 01-.688.688z" fill="url(#paint6_linear)"/><path opacity=".6" d="M57.554 35.735l-27.278.034a.686.686 0 01-.688-.689v-.116c0-.381.307-.688.688-.688l27.278-.033c.381 0 .688.307.688.688v.116a.697.697 0 01-.688.688z" fill="url(#paint7_linear)"/><path opacity=".6" d="M56.965 48.645l-45.502.05a.713.713 0 01-.713-.714v-.066c0-.39.315-.713.713-.713l45.502-.05c.39 0 .713.315.713.713v.067a.713.713 0 01-.713.713z" fill="url(#paint8_linear)"/><path opacity=".6" d="M57.554 40.246l-27.278.033a.686.686 0 01-.688-.688v-.116c0-.382.307-.688.688-.688l27.278-.034c.381 0 .688.307.688.689v.116a.686.686 0 01-.688.688z" fill="url(#paint9_linear)"/><defs><linearGradient id="paint0_linear" x1="-8.654" y1="34.748" x2="76.999" y2="62.579" gradientUnits="userSpaceOnUse"><stop stop-color="#6CBCFC"/><stop offset=".171" stop-color="#5EABFC"/><stop offset=".408" stop-color="#509AFC"/><stop offset=".67" stop-color="#4890FC"/><stop offset="1" stop-color="#458DFC"/></linearGradient><linearGradient id="paint1_linear" x1="-4.59" y1="-21.375" x2="56.387" y2="7.99" gradientUnits="userSpaceOnUse"><stop stop-color="#CFE9FF"/><stop offset="1" stop-color="#A1D6FB"/></linearGradient><linearGradient id="paint2_linear" x1="14.654" y1="2.58" x2="53.59" y2="2.58" gradientUnits="userSpaceOnUse"><stop stop-color="#B0F4FF"/><stop offset="1" stop-color="#69DCFC"/></linearGradient><linearGradient id="paint3_linear" x1="14.77" y1="29.208" x2="24.551" y2="41.834" gradientUnits="userSpaceOnUse"><stop stop-color="#6CBCFC"/><stop offset="1" stop-color="#458DFC"/></linearGradient><linearGradient id="paint4_linear" x1="13.709" y1="30.03" x2="23.49" y2="42.656" gradientUnits="userSpaceOnUse"><stop stop-color="#B0F4FF"/><stop offset=".099" stop-color="#A1EFFE"/><stop offset=".299" stop-color="#88E7FD"/><stop offset=".509" stop-color="#77E1FD"/><stop offset=".734" stop-color="#6CDDFC"/><stop offset="1" stop-color="#69DCFC"/></linearGradient><linearGradient id="paint5_linear" x1="29.581" y1="26.551" x2="51.24" y2="26.564" gradientUnits="userSpaceOnUse"><stop stop-color="#6CBCFC"/><stop offset="1" stop-color="#458DFC"/></linearGradient><linearGradient id="paint6_linear" x1="29.585" y1="30.404" x2="43.782" y2="30.404" gradientUnits="userSpaceOnUse"><stop stop-color="#6CBCFC"/><stop offset="1" stop-color="#458DFC"/></linearGradient><linearGradient id="paint7_linear" x1="29.589" y1="35.01" x2="58.237" y2="35.01" gradientUnits="userSpaceOnUse"><stop stop-color="#6CBCFC"/><stop offset="1" stop-color="#458DFC"/></linearGradient><linearGradient id="paint8_linear" x1="10.75" y1="47.928" x2="57.676" y2="47.928" gradientUnits="userSpaceOnUse"><stop stop-color="#6CBCFC"/><stop offset="1" stop-color="#458DFC"/></linearGradient><linearGradient id="paint9_linear" x1="29.594" y1="39.52" x2="58.242" y2="39.52" gradientUnits="userSpaceOnUse"><stop stop-color="#6CBCFC"/><stop offset="1" stop-color="#458DFC"/></linearGradient></defs></svg>